<svg width="44" height="44" viewBox="0 0 44 44" fill="none" xmlns="http://www.w3.org/2000/svg">
<rect width="44" height="44" rx="22" fill="#E0FFEE"/>
<path d="M31 29H33V31H11V29H13V14C13 13.7348 13.1054 13.4804 13.2929 13.2929C13.4804 13.1054 13.7348 13 14 13H24C24.2652 13 24.5196 13.1054 24.7071 13.2929C24.8946 13.4804 25 13.7348 25 14V29H29V21H27V19H30C30.2652 19 30.5196 19.1054 30.7071 19.2929C30.8946 19.4804 31 19.7348 31 20V29ZM15 15V29H23V15H15ZM17 21H21V23H17V21ZM17 17H21V19H17V17Z" fill="#33AF7F"/>
</svg>
