<svg width="94" height="64" viewBox="0 0 94 64" fill="none" xmlns="http://www.w3.org/2000/svg">
<g opacity="0.05">
<path d="M65 45C60.8333 45 57.2917 43.5417 54.375 40.625C51.4583 37.7083 50 34.1667 50 30C50 25.8333 51.4583 22.2917 54.375 19.375C57.2917 16.4583 60.8333 15 65 15C69.1667 15 72.7083 16.4583 75.625 19.375C78.5417 22.2917 80 25.8333 80 30C80 34.1667 78.5417 37.7083 75.625 40.625C72.7083 43.5417 69.1667 45 65 45ZM30 60C27.25 60 24.8958 59.0208 22.9375 57.0625C20.9792 55.1042 20 52.75 20 50V10C20 7.25 20.9792 4.89583 22.9375 2.9375C24.8958 0.979167 27.25 0 30 0H100C102.75 0 105.104 0.979167 107.062 2.9375C109.021 4.89583 110 7.25 110 10V50C110 52.75 109.021 55.1042 107.062 57.0625C105.104 59.0208 102.75 60 100 60H30ZM40 50H90C90 47.25 90.9792 44.8958 92.9375 42.9375C94.8958 40.9792 97.25 40 100 40V20C97.25 20 94.8958 19.0208 92.9375 17.0625C90.9792 15.1042 90 12.75 90 10H40C40 12.75 39.0208 15.1042 37.0625 17.0625C35.1042 19.0208 32.75 20 30 20V40C32.75 40 35.1042 40.9792 37.0625 42.9375C39.0208 44.8958 40 47.25 40 50ZM95 80H10C7.25 80 4.89583 79.0208 2.9375 77.0625C0.979167 75.1042 0 72.75 0 70V15H10V70H95V80ZM30 50V10V50Z" fill="#191C1E"/>
</g>
</svg>
