<svg width="395" height="238" viewBox="0 0 395 238" fill="none" xmlns="http://www.w3.org/2000/svg">
<g filter="url(#filter0_d_44_682)">
<rect x="9.30151" y="0.588867" width="384" height="221" rx="12" transform="rotate(2 9.30151 0.588867)" fill="white" shape-rendering="crispEdges"/>
<rect x="32.4492" y="25.4116" width="31.9996" height="31.9996" rx="15.9998" transform="rotate(2 32.4492 25.4116)" fill="#E2E8F0"/>
<rect x="272.024" y="41.7827" width="95.9985" height="15.9998" rx="4" transform="rotate(2 272.024 41.7827)" fill="#F1F5F9"/>
<rect x="30.4949" y="81.3774" width="336" height="11.9974" rx="4" transform="rotate(2 30.4949 81.3774)" fill="#F8FAFC"/>
<rect x="29.6575" y="105.357" width="252.004" height="11.9974" rx="4" transform="rotate(2 29.6575 105.357)" fill="#F8FAFC"/>
<mask id="path-6-inside-1_44_682" fill="white">
<path d="M28.1221 149.328L363.917 161.054L362.208 210.019L26.4122 198.293L28.1221 149.328Z"/>
</mask>
<path d="M28.1221 149.328L28.0872 150.327L363.882 162.053L363.917 161.054L363.952 160.054L28.157 148.328L28.1221 149.328Z" fill="#F8FAFC" mask="url(#path-6-inside-1_44_682)"/>
<path d="M27.4819 190.328L27.7866 181.603L31.1905 181.722C31.8529 181.745 32.412 181.89 32.8676 182.159C33.3233 182.427 33.6656 182.787 33.8945 183.239C34.1234 183.69 34.2279 184.203 34.2078 184.777C34.1877 185.353 34.0462 185.857 33.7833 186.287C33.5204 186.718 33.1491 187.05 32.6695 187.282C32.1898 187.515 31.6146 187.619 30.9437 187.596L28.7571 187.519L28.8074 186.077L30.7106 186.143C31.0742 186.156 31.3767 186.103 31.6179 185.985C31.8591 185.867 32.0413 185.698 32.1644 185.478C32.2875 185.259 32.3541 185.003 32.3642 184.713C32.3746 184.418 32.3259 184.158 32.2183 183.933C32.1108 183.708 31.9403 183.53 31.7068 183.4C31.4734 183.269 31.174 183.197 30.8085 183.184L29.5245 183.14L29.2713 190.39L27.4819 190.328ZM33.7542 190.547L37.0435 181.926L39.3817 182.008L42.1373 190.84L40.1503 190.77L38.899 186.513C38.7479 185.963 38.5974 185.362 38.4475 184.709C38.2977 184.056 38.1403 183.345 37.9754 182.575L38.3633 182.589C38.1511 183.349 37.9528 184.051 37.7685 184.696C37.5842 185.341 37.4025 185.927 37.2233 186.454L35.7277 190.616L33.7542 190.547ZM35.6897 188.587L35.7386 187.185L40.3922 187.347L40.3433 188.75L35.6897 188.587ZM44.9961 190.939L45.1106 187.658L42.0696 182.101L44.1643 182.175L45.5439 184.945C45.6852 185.224 45.81 185.5 45.9183 185.772C46.0265 186.044 46.1363 186.369 46.2474 186.747L45.8561 186.734C45.9893 186.36 46.1178 186.041 46.2415 185.775C46.3652 185.509 46.5035 185.245 46.6562 184.984L48.1786 182.315L50.2643 182.388L46.8937 187.721L46.7791 191.002L44.9961 190.939ZM51.034 191.15L51.3387 182.425L54.0835 182.521L55.3559 186.576C55.4086 186.764 55.4677 187.008 55.5333 187.308C55.5989 187.608 55.665 187.931 55.7316 188.278C55.7981 188.624 55.86 188.96 55.9172 189.286C55.9743 189.612 56.021 189.895 56.057 190.137L55.7067 190.124C55.7611 189.892 55.8276 189.616 55.9063 189.296C55.985 188.977 56.0696 188.646 56.1601 188.305C56.2507 187.963 56.3392 187.643 56.4255 187.346C56.5119 187.048 56.5879 186.807 56.6536 186.621L58.186 182.664L60.9366 182.76L60.6319 191.485L58.838 191.423L58.9817 187.309C58.9883 187.119 58.9997 186.882 59.0158 186.598C59.0319 186.314 59.0502 186.008 59.0707 185.678C59.0912 185.349 59.1113 185.017 59.131 184.682C59.1507 184.347 59.1665 184.032 59.1786 183.738L59.2945 183.742C59.2075 184.063 59.1126 184.395 59.0099 184.736C58.9072 185.077 58.8047 185.409 58.7023 185.731C58.6 186.052 58.5029 186.347 58.4112 186.615C58.3194 186.883 58.241 187.105 58.1759 187.281L56.5883 191.344L55.0813 191.292L53.758 187.127C53.7053 186.948 53.6428 186.723 53.5706 186.453C53.4984 186.182 53.4214 185.883 53.3396 185.557C53.2578 185.23 53.1766 184.892 53.096 184.543C53.0155 184.193 52.9385 183.851 52.8652 183.517L53.0054 183.522C52.9991 183.804 52.9942 184.111 52.9905 184.443C52.9869 184.775 52.9834 185.107 52.9799 185.44C52.9764 185.773 52.9731 186.083 52.9701 186.372C52.9671 186.661 52.9622 186.903 52.9554 187.099L52.8117 191.212L51.034 191.15ZM62.2069 191.54L62.5115 182.815L68.3536 183.019L68.3018 184.503L64.2491 184.361L64.1755 186.467L67.9192 186.598L67.8682 188.056L64.1246 187.925L64.048 190.12L68.1123 190.261L68.0605 191.745L62.2069 191.54ZM69.4915 191.795L69.7962 183.07L71.7909 183.139L74.3916 187.652C74.5237 187.884 74.6579 188.134 74.794 188.404C74.9302 188.673 75.0676 188.973 75.2063 189.302C75.3449 189.631 75.4824 190.001 75.6187 190.413L75.4353 190.407C75.4199 190.08 75.4071 189.734 75.3969 189.368C75.3867 189.002 75.3802 188.65 75.3775 188.313C75.3748 187.975 75.3775 187.691 75.3857 187.458L75.5319 183.27L77.3592 183.334L77.0545 192.059L75.0544 191.989L72.693 187.897C72.5191 187.589 72.3585 187.291 72.2114 187.004C72.0643 186.716 71.9121 186.398 71.7546 186.049C71.5971 185.699 71.4092 185.283 71.1907 184.8L71.4178 184.808C71.429 185.23 71.4393 185.635 71.4487 186.024C71.4582 186.412 71.4644 186.764 71.4674 187.078C71.4705 187.391 71.4685 187.649 71.4615 187.849L71.3215 191.859L69.4915 191.795ZM78.5379 184.86L78.5897 183.377L85.7146 183.626L85.6628 185.109L82.9977 185.016L82.7449 192.258L80.9555 192.195L81.2084 184.953L78.5379 184.86ZM92.6741 192.732C91.976 192.707 91.372 192.579 90.862 192.346C90.3521 192.113 89.96 191.781 89.6857 191.35C89.4115 190.92 89.276 190.394 89.2793 189.775L91.0189 189.836C91.0314 190.131 91.1104 190.379 91.2558 190.582C91.4012 190.784 91.5994 190.939 91.8503 191.046C92.1013 191.153 92.3871 191.212 92.7078 191.223C93.0261 191.234 93.3056 191.197 93.5462 191.113C93.7867 191.028 93.9759 190.904 94.1136 190.741C94.2512 190.578 94.3239 190.386 94.3316 190.166C94.3386 189.965 94.2855 189.795 94.1721 189.657C94.0588 189.518 93.892 189.397 93.6717 189.292C93.4515 189.188 93.1833 189.093 92.8673 189.007L91.9165 188.734C91.1842 188.529 90.6154 188.226 90.21 187.827C89.8046 187.428 89.6129 186.911 89.6351 186.276C89.6535 185.75 89.8117 185.295 90.1099 184.911C90.4082 184.527 90.8081 184.234 91.3097 184.032C91.8113 183.831 92.3779 183.741 93.0097 183.763C93.6552 183.786 94.2142 183.916 94.6866 184.153C95.159 184.391 95.5226 184.71 95.7773 185.111C96.032 185.512 96.155 185.968 96.1465 186.479L94.4185 186.419C94.3968 186.068 94.2565 185.792 93.9976 185.59C93.7386 185.389 93.3865 185.28 92.941 185.265C92.6379 185.254 92.3776 185.289 92.1601 185.368C91.9425 185.448 91.7751 185.562 91.6579 185.711C91.5407 185.86 91.4787 186.032 91.4719 186.227C91.4644 186.441 91.5233 186.621 91.6487 186.766C91.7741 186.912 91.9419 187.033 92.152 187.129C92.3621 187.225 92.5884 187.307 92.8309 187.374L93.6113 187.594C93.9755 187.691 94.3134 187.815 94.6253 187.967C94.9371 188.119 95.2083 188.301 95.4388 188.514C95.6692 188.727 95.8457 188.976 95.9681 189.261C96.0905 189.546 96.1453 189.871 96.1325 190.237C96.114 190.766 95.9645 191.222 95.684 191.605C95.4034 191.987 95.0084 192.277 94.4991 192.474C93.9897 192.67 93.3814 192.756 92.6741 192.732ZM100.926 193.014C100.205 192.989 99.5793 192.834 99.0478 192.549C98.5164 192.264 98.1095 191.877 97.8272 191.389C97.5448 190.9 97.4147 190.34 97.4369 189.706L97.6347 184.042L99.424 184.104L99.2314 189.621C99.2195 189.961 99.2843 190.265 99.4258 190.532C99.5673 190.8 99.7708 191.014 100.036 191.174C100.302 191.334 100.617 191.421 100.981 191.433C101.348 191.446 101.67 191.382 101.946 191.241C102.222 191.1 102.44 190.901 102.598 190.643C102.757 190.386 102.843 190.087 102.855 189.747L103.047 184.231L104.837 184.293L104.639 189.958C104.617 190.591 104.447 191.141 104.131 191.609C103.814 192.076 103.381 192.434 102.831 192.681C102.282 192.928 101.647 193.039 100.926 193.014ZM109.916 193.324C109.143 193.297 108.457 193.097 107.859 192.724C107.26 192.351 106.796 191.825 106.466 191.145C106.137 190.465 105.989 189.653 106.022 188.708C106.055 187.758 106.261 186.955 106.64 186.299C107.019 185.643 107.521 185.15 108.146 184.819C108.77 184.489 109.465 184.338 110.229 184.364C110.725 184.382 111.185 184.467 111.608 184.62C112.031 184.774 112.404 184.989 112.726 185.266C113.048 185.544 113.308 185.878 113.507 186.269C113.706 186.661 113.829 187.103 113.877 187.596L112.069 187.533C112.036 187.292 111.968 187.077 111.864 186.886C111.76 186.696 111.627 186.533 111.464 186.396C111.302 186.259 111.115 186.153 110.903 186.078C110.691 186.003 110.461 185.962 110.212 185.953C109.758 185.937 109.356 186.036 109.006 186.251C108.655 186.465 108.378 186.785 108.174 187.209C107.97 187.634 107.857 188.155 107.835 188.772C107.813 189.4 107.891 189.932 108.068 190.369C108.245 190.806 108.5 191.139 108.833 191.369C109.166 191.599 109.556 191.722 110.003 191.738C110.252 191.746 110.485 191.72 110.7 191.659C110.916 191.598 111.11 191.506 111.284 191.382C111.458 191.258 111.604 191.104 111.723 190.921C111.842 190.737 111.927 190.528 111.979 190.291L113.787 190.355C113.724 190.758 113.59 191.141 113.385 191.505C113.181 191.868 112.912 192.191 112.58 192.471C112.248 192.752 111.859 192.969 111.412 193.123C110.965 193.276 110.467 193.343 109.916 193.324ZM118.788 193.634C118.015 193.607 117.329 193.407 116.73 193.034C116.131 192.661 115.667 192.134 115.338 191.455C115.008 190.775 114.86 189.963 114.893 189.018C114.926 188.068 115.133 187.264 115.512 186.608C115.891 185.952 116.393 185.459 117.017 185.129C117.642 184.799 118.336 184.647 119.101 184.674C119.597 184.692 120.056 184.777 120.48 184.93C120.903 185.083 121.276 185.299 121.598 185.576C121.92 185.853 122.18 186.188 122.379 186.579C122.577 186.97 122.701 187.413 122.749 187.906L120.941 187.843C120.908 187.602 120.839 187.386 120.735 187.196C120.632 187.006 120.499 186.843 120.336 186.706C120.173 186.569 119.986 186.463 119.775 186.388C119.563 186.313 119.332 186.271 119.083 186.263C118.63 186.247 118.228 186.346 117.877 186.561C117.527 186.775 117.249 187.095 117.045 187.519C116.841 187.944 116.728 188.465 116.707 189.082C116.685 189.71 116.763 190.242 116.94 190.679C117.117 191.115 117.371 191.449 117.704 191.679C118.037 191.909 118.427 192.032 118.875 192.047C119.124 192.056 119.356 192.03 119.572 191.969C119.787 191.908 119.982 191.816 120.156 191.691C120.329 191.567 120.476 191.414 120.595 191.23C120.713 191.047 120.799 190.837 120.851 190.601L122.659 190.664C122.596 191.068 122.462 191.451 122.257 191.815C122.052 192.178 121.784 192.5 121.452 192.781C121.12 193.062 120.73 193.279 120.284 193.432C119.837 193.586 119.338 193.653 118.788 193.634ZM123.851 193.693L124.156 184.968L129.998 185.172L129.946 186.655L125.893 186.514L125.82 188.62L129.563 188.751L129.512 190.209L125.769 190.078L125.692 192.272L129.756 192.414L129.705 193.898L123.851 193.693ZM134.332 194.186C133.634 194.162 133.03 194.033 132.52 193.801C132.01 193.568 131.618 193.236 131.344 192.805C131.07 192.374 130.934 191.849 130.938 191.23L132.677 191.291C132.69 191.586 132.769 191.834 132.914 192.036C133.059 192.239 133.258 192.393 133.509 192.5C133.759 192.607 134.045 192.667 134.366 192.678C134.684 192.689 134.964 192.652 135.204 192.567C135.445 192.483 135.634 192.359 135.772 192.196C135.909 192.032 135.982 191.841 135.99 191.621C135.997 191.42 135.944 191.25 135.83 191.111C135.717 190.973 135.55 190.851 135.33 190.747C135.11 190.643 134.842 190.548 134.526 190.461L133.575 190.189C132.842 189.983 132.274 189.681 131.868 189.282C131.463 188.882 131.271 188.365 131.293 187.731C131.312 187.205 131.47 186.75 131.768 186.366C132.066 185.982 132.466 185.689 132.968 185.487C133.469 185.285 134.036 185.196 134.668 185.218C135.313 185.24 135.872 185.37 136.345 185.608C136.817 185.846 137.181 186.165 137.435 186.566C137.69 186.967 137.813 187.423 137.805 187.934L136.077 187.874C136.055 187.523 135.915 187.247 135.656 187.045C135.397 186.844 135.045 186.735 134.599 186.72C134.296 186.709 134.036 186.744 133.818 186.823C133.601 186.903 133.433 187.017 133.316 187.166C133.199 187.315 133.137 187.487 133.13 187.682C133.123 187.896 133.182 188.076 133.307 188.221C133.432 188.367 133.6 188.488 133.81 188.584C134.02 188.68 134.247 188.762 134.489 188.829L135.27 189.049C135.634 189.145 135.972 189.27 136.283 189.422C136.595 189.574 136.866 189.756 137.097 189.969C137.327 190.182 137.504 190.431 137.626 190.716C137.749 191.001 137.803 191.326 137.791 191.692C137.772 192.221 137.623 192.677 137.342 193.059C137.062 193.442 136.667 193.732 136.157 193.928C135.648 194.125 135.04 194.211 134.332 194.186ZM142.185 194.46C141.487 194.436 140.883 194.308 140.373 194.075C139.863 193.842 139.471 193.51 139.197 193.079C138.922 192.648 138.787 192.123 138.79 191.504L140.53 191.565C140.542 191.86 140.621 192.108 140.767 192.311C140.912 192.513 141.11 192.668 141.361 192.775C141.612 192.882 141.898 192.941 142.219 192.952C142.537 192.963 142.816 192.926 143.057 192.842C143.298 192.757 143.487 192.633 143.624 192.47C143.762 192.307 143.835 192.115 143.842 191.895C143.849 191.694 143.796 191.524 143.683 191.386C143.57 191.247 143.403 191.126 143.183 191.021C142.962 190.917 142.694 190.822 142.378 190.735L141.427 190.463C140.695 190.257 140.126 189.955 139.721 189.556C139.315 189.157 139.124 188.64 139.146 188.005C139.164 187.479 139.323 187.024 139.621 186.64C139.919 186.256 140.319 185.963 140.821 185.761C141.322 185.56 141.889 185.47 142.52 185.492C143.166 185.515 143.725 185.645 144.197 185.882C144.67 186.12 145.033 186.439 145.288 186.84C145.543 187.241 145.666 187.697 145.657 188.208L143.929 188.148C143.908 187.797 143.767 187.521 143.508 187.319C143.249 187.118 142.897 187.009 142.452 186.994C142.149 186.983 141.888 187.018 141.671 187.097C141.453 187.177 141.286 187.291 141.169 187.44C141.052 187.589 140.99 187.761 140.983 187.956C140.975 188.17 141.034 188.35 141.16 188.495C141.285 188.641 141.453 188.762 141.663 188.858C141.873 188.954 142.099 189.036 142.342 189.103L143.122 189.323C143.486 189.42 143.824 189.544 144.136 189.696C144.448 189.848 144.719 190.03 144.95 190.243C145.18 190.456 145.357 190.705 145.479 190.99C145.601 191.275 145.656 191.6 145.643 191.966C145.625 192.495 145.475 192.951 145.195 193.334C144.914 193.716 144.519 194.006 144.01 194.203C143.501 194.399 142.892 194.485 142.185 194.46ZM146.841 194.496L147.146 185.771L152.886 185.971L152.835 187.455L148.883 187.317L148.798 189.753L152.364 189.877L152.313 191.336L148.747 191.211L148.63 194.558L146.841 194.496ZM157.476 194.989C156.755 194.964 156.129 194.809 155.597 194.524C155.066 194.239 154.659 193.852 154.377 193.363C154.094 192.875 153.964 192.314 153.986 191.681L154.184 186.017L155.974 186.079L155.781 191.596C155.769 191.935 155.834 192.239 155.975 192.507C156.117 192.775 156.32 192.989 156.586 193.149C156.851 193.309 157.166 193.395 157.531 193.408C157.898 193.421 158.219 193.357 158.495 193.216C158.771 193.075 158.989 192.876 159.148 192.618C159.307 192.361 159.392 192.062 159.404 191.722L159.597 186.206L161.386 186.268L161.188 191.933C161.166 192.566 160.997 193.116 160.68 193.584C160.363 194.051 159.93 194.408 159.381 194.656C158.832 194.903 158.197 195.014 157.476 194.989ZM162.657 195.048L162.962 186.323L164.751 186.386L164.499 193.627L168.261 193.759L168.209 195.242L162.657 195.048Z" fill="#005C3E"/>
<rect x="339.055" y="185.201" width="24.0044" height="23.9947" rx="11.9974" transform="rotate(2 339.055 185.201)" fill="#005C3E" fill-opacity="0.2"/>
<path d="M349.081 201.065L345.874 197.626L346.733 196.824L349.139 199.403L354.674 194.241L355.476 195.101L349.081 201.065Z" fill="#005C3E"/>
</g>
<defs>
<filter id="filter0_d_44_682" x="-0.411377" y="-0.411133" width="395.479" height="238.267" filterUnits="userSpaceOnUse" color-interpolation-filters="sRGB">
<feFlood flood-opacity="0" result="BackgroundImageFix"/>
<feColorMatrix in="SourceAlpha" type="matrix" values="0 0 0 0 0 0 0 0 0 0 0 0 0 0 0 0 0 0 127 0" result="hardAlpha"/>
<feOffset dy="1"/>
<feGaussianBlur stdDeviation="1"/>
<feComposite in2="hardAlpha" operator="out"/>
<feColorMatrix type="matrix" values="0 0 0 0 0 0 0 0 0 0 0 0 0 0 0 0 0 0 0.05 0"/>
<feBlend mode="normal" in2="BackgroundImageFix" result="effect1_dropShadow_44_682"/>
<feBlend mode="normal" in="SourceGraphic" in2="effect1_dropShadow_44_682" result="shape"/>
</filter>
</defs>
</svg>
