<svg width="148" height="37" viewBox="0 0 148 37" fill="none" xmlns="http://www.w3.org/2000/svg">
<g clip-path="url(#clip0_44_4774)">
<path d="M38.7127 21.4594L28.67 15.7326L38.0203 10.4097C38.1745 10.3204 38.287 10.1746 38.3332 10.0039C38.3794 9.83325 38.3558 9.65148 38.2673 9.49795L34.7037 3.40727C34.6597 3.33156 34.6009 3.26518 34.5309 3.21193C34.4608 3.15868 34.3808 3.11961 34.2954 3.09694C34.21 3.07428 34.1209 3.06848 34.0333 3.07987C33.9456 3.09126 33.8611 3.11962 33.7845 3.16332L23.8593 8.81009V0.663859C23.8593 0.487793 23.7884 0.318938 23.6624 0.194441C23.5363 0.0699437 23.3653 6.03769e-07 23.1871 6.03769e-07H16.064C15.9754 -0.000526603 15.8876 0.0162538 15.8056 0.0493796C15.7235 0.0825054 15.6489 0.131322 15.5861 0.193019C15.5232 0.254716 15.4734 0.32808 15.4393 0.408884C15.4053 0.489689 15.3878 0.576342 15.3878 0.663859V8.85808L5.38964 3.15532C5.23418 3.06794 5.05012 3.04455 4.87732 3.09021C4.70452 3.13586 4.55688 3.2469 4.46637 3.39927L0.906879 9.48995C0.81732 9.64324 0.793033 9.82536 0.839348 9.99633C0.885664 10.1673 0.998795 10.3131 1.1539 10.4018L10.4434 15.6966L0.319707 21.4594C0.16542 21.5488 0.0529908 21.6946 0.00675899 21.8652C-0.0394728 22.0359 -0.0157877 22.2176 0.0726889 22.3712L3.63622 28.4619C3.72596 28.6139 3.87288 28.7249 4.04502 28.7706C4.21716 28.8163 4.4006 28.793 4.55545 28.7058L15.3716 22.5351V36.3121C15.3727 36.4949 15.4469 36.6699 15.5782 36.7988C15.7095 36.9277 15.887 37 16.0721 37H23.1466C23.238 37 23.3286 36.9822 23.4131 36.9476C23.4976 36.9131 23.5744 36.8624 23.6391 36.7985C23.7037 36.7347 23.755 36.6588 23.79 36.5754C23.8251 36.4919 23.8431 36.4025 23.8431 36.3121V22.6511L34.4608 28.7058C34.6162 28.7932 34.8003 28.8166 34.9731 28.7709C35.1459 28.7252 35.2935 28.6142 35.3841 28.4619L38.9435 22.3712C39.0345 22.2198 39.0613 22.0391 39.018 21.8684C38.9748 21.6976 38.8651 21.5506 38.7127 21.4594Z" fill="#33AF7F"/>
<path d="M48.7677 28.8698V6.57858H58.3002C58.5188 6.57858 58.8144 6.57858 59.1829 6.60257C59.5169 6.61396 59.8497 6.64736 60.1791 6.70255C61.3848 6.84565 62.532 7.29635 63.5078 8.01027C64.3603 8.67057 65.0176 9.54482 65.411 10.5417C65.8321 11.626 66.0396 12.7798 66.0225 13.941C66.0731 15.6469 65.5802 17.3255 64.6133 18.7399C63.6684 20.073 62.1944 20.8901 60.1912 21.1914L58.3123 21.3154H53.048V28.8698H48.7677ZM53.0318 17.3842H58.122C58.3406 17.3842 58.5836 17.3842 58.8428 17.3522C59.0868 17.3361 59.3284 17.2946 59.5636 17.2283C60.0852 17.1125 60.5577 16.8401 60.9161 16.4484C61.2235 16.0939 61.4463 15.6757 61.5681 15.2247C61.8056 14.3891 61.8056 13.5049 61.5681 12.6693C61.4463 12.2183 61.2235 11.8001 60.9161 11.4455C60.563 11.0574 60.0981 10.7852 59.5838 10.6657C59.3487 10.5994 59.107 10.5578 58.863 10.5417C58.6039 10.5217 58.3609 10.5097 58.1422 10.5097H53.0439L53.0318 17.3842ZM61.4952 28.8698L57.0408 19.7997L61.4304 18.9639L66.3181 28.8698H61.4952Z" fill="white"/>
<path d="M75.7737 29.3337C74.1725 29.3674 72.5904 28.9854 71.1856 28.2259C69.8867 27.5122 68.8132 26.4575 68.0837 25.1786C67.3179 23.8189 66.9308 22.283 66.962 20.7275C66.9227 19.0733 67.2998 17.4354 68.0594 15.9605C68.7503 14.652 69.7981 13.5604 71.0844 12.8092C72.4382 12.0419 73.9782 11.6534 75.5388 11.6855C77.14 11.6383 78.7182 12.0705 80.0661 12.9252C81.3307 13.7748 82.296 14.9922 82.8278 16.4085C83.4462 18.0968 83.661 19.9034 83.4555 21.6873H79.2198V20.1396C79.2198 18.436 78.9484 17.2123 78.4099 16.4644C77.8713 15.7166 76.9642 15.3407 75.721 15.3407C74.2713 15.3407 73.2036 15.7766 72.5179 16.6484C71.8322 17.5202 71.4893 18.8079 71.4893 20.5116C71.4893 22.0712 71.8322 23.271 72.5179 24.1108C73.2036 24.9506 74.2092 25.3759 75.5347 25.3865C76.287 25.407 77.0302 25.2201 77.681 24.8466C78.2849 24.473 78.7605 23.928 79.0456 23.283L83.3097 24.4827C82.7138 25.9562 81.6568 27.2033 80.2929 28.0419C78.9421 28.8895 77.374 29.3377 75.7737 29.3337ZM70.1611 21.6873V18.56H81.3822V21.6873H70.1611Z" fill="white"/>
<path d="M84.5813 28.8698V12.1534H88.3756V17.6922H88.9061V28.8898L84.5813 28.8698ZM96.1506 28.8698V20.9755C96.1506 20.5756 96.1304 20.1077 96.0858 19.5118C96.036 18.9002 95.8997 18.2984 95.6809 17.7242C95.468 17.1361 95.0953 16.6173 94.6037 16.2245C93.9969 15.7842 93.2538 15.5665 92.5021 15.6086C92.1035 15.6131 91.7073 15.6696 91.3237 15.7766C90.8851 15.9021 90.4827 16.1282 90.1493 16.4364C89.7366 16.8347 89.4281 17.326 89.2503 17.8681C88.9844 18.677 88.8638 19.5257 88.894 20.3756L86.4643 19.2278C86.4547 17.9457 86.7313 16.6773 87.2742 15.5127C87.807 14.3687 88.658 13.3978 89.7282 12.7133C90.9674 11.9609 92.4051 11.5892 93.8586 11.6455C94.9772 11.6016 96.0896 11.8296 97.0982 12.3093C97.8784 12.7063 98.5485 13.2857 99.0501 13.997C99.5007 14.6459 99.8374 15.3652 100.046 16.1245C100.23 16.7852 100.35 17.4613 100.407 18.1441C100.447 18.7546 100.467 19.1985 100.467 19.4758V28.8578L96.1506 28.8698Z" fill="white"/>
<path d="M100.791 15.4007V12.1534H112.826V15.4007H100.791ZM112.826 28.8698C111.693 29.0826 110.541 29.1791 109.388 29.1577C108.356 29.1478 107.334 28.9485 106.375 28.5698C105.514 28.2249 104.799 27.598 104.351 26.7942C103.949 26.0804 103.722 25.283 103.691 24.4667C103.67 23.6669 103.662 22.7831 103.662 21.7793V7.50638H107.926V21.5313C107.926 22.1832 107.926 22.7671 107.947 23.291C107.94 23.7266 108.052 24.1561 108.271 24.5347C108.466 24.8303 108.734 25.0729 109.048 25.2405C109.363 25.4081 109.715 25.4954 110.073 25.4945C110.988 25.5434 111.907 25.5019 112.814 25.3705L112.826 28.8698Z" fill="white"/>
<path d="M115.021 9.82987V6.11468H119.285V9.82987H115.021ZM115.021 28.8698V12.1534H119.285V28.8698H115.021Z" fill="white"/>
<path d="M120.848 15.4007V12.1534H131.701V15.4007H120.848ZM123.513 28.8698V12.2134C123.513 11.7895 123.513 11.3096 123.545 10.7737C123.567 10.2243 123.654 9.67931 123.804 9.15002C123.958 8.59471 124.246 8.08435 124.643 7.66235C125.095 7.12438 125.681 6.71111 126.343 6.46261C126.915 6.25883 127.514 6.14414 128.121 6.12268C128.696 6.12268 129.186 6.09868 129.595 6.09868H131.697V9.50195H129.757C129.487 9.47983 129.215 9.51317 128.959 9.59989C128.702 9.68661 128.467 9.82482 128.267 10.0058C128.11 10.1642 127.986 10.3518 127.902 10.5577C127.819 10.7636 127.778 10.9838 127.781 11.2056V28.8538L123.513 28.8698Z" fill="white"/>
<path d="M134.491 36.3001L137.731 27.4461L137.791 30.0455L130.446 12.1534H134.868L139.82 24.8066H138.816L143.736 12.1454H148L138.439 36.2922L134.491 36.3001Z" fill="white"/>
</g>
<defs>
<clipPath id="clip0_44_4774">
<rect width="148" height="37" fill="white"/>
</clipPath>
</defs>
</svg>
